<mxfile host="Electron" agent="Mozilla/5.0 (Macintosh; Intel Mac OS X 10_15_7) AppleWebKit/537.36 (KHTML, like Gecko) draw.io/26.0.9 Chrome/128.0.6613.186 Electron/32.2.5 Safari/537.36" version="26.0.9">
  <diagram id="C5RBs43oDa-KdzZeNtuy" name="Page-1">
    <mxGraphModel dx="2368" dy="1894" grid="0" gridSize="10" guides="1" tooltips="1" connect="1" arrows="1" fold="1" page="0" pageScale="1" pageWidth="1169" pageHeight="1654" math="0" shadow="0">
      <root>
        <mxCell id="WIyWlLk6GJQsqaUBKTNV-0" />
        <mxCell id="WIyWlLk6GJQsqaUBKTNV-1" parent="WIyWlLk6GJQsqaUBKTNV-0" />
        <mxCell id="in3-vSJeBL32kbLkJpHw-18" value="&lt;span style=&quot;font-size: 14px;&quot;&gt;Enemy&lt;/span&gt;" style="swimlane;fontStyle=1;align=center;verticalAlign=top;childLayout=stackLayout;horizontal=1;startSize=26;horizontalStack=0;resizeParent=1;resizeParentMax=0;resizeLast=0;collapsible=1;marginBottom=0;whiteSpace=wrap;html=1;" vertex="1" parent="WIyWlLk6GJQsqaUBKTNV-1">
          <mxGeometry x="160" y="697" width="240" height="340" as="geometry" />
        </mxCell>
        <mxCell id="in3-vSJeBL32kbLkJpHw-19" value="&lt;div style=&quot;line-height: 180%;&quot;&gt;&lt;p style=&quot;margin: 0px; font-variant-numeric: normal; font-variant-east-asian: normal; font-variant-alternates: normal; font-size-adjust: none; font-kerning: auto; font-optical-sizing: auto; font-feature-settings: normal; font-variation-settings: normal; font-variant-position: normal; font-stretch: normal; font-family: &amp;quot;.AppleSystemUIFontMonospaced&amp;quot;; line-height: 180%;&quot; class=&quot;p1&quot;&gt;&lt;font style=&quot;font-size: 14px;&quot;&gt;- enemySpeedFactor: float&lt;/font&gt;&lt;/p&gt;&lt;p style=&quot;margin: 0px; font-variant-numeric: normal; font-variant-east-asian: normal; font-variant-alternates: normal; font-size-adjust: none; font-kerning: auto; font-optical-sizing: auto; font-feature-settings: normal; font-variation-settings: normal; font-variant-position: normal; font-stretch: normal; font-family: &amp;quot;.AppleSystemUIFontMonospaced&amp;quot;; line-height: 180%;&quot; class=&quot;p1&quot;&gt;&lt;font style=&quot;font-size: 14px;&quot;&gt;- enemyTimer: int&lt;/font&gt;&lt;/p&gt;&lt;p style=&quot;margin: 0px; font-variant-numeric: normal; font-variant-east-asian: normal; font-variant-alternates: normal; font-size-adjust: none; font-kerning: auto; font-optical-sizing: auto; font-feature-settings: normal; font-variation-settings: normal; font-variant-position: normal; font-stretch: normal; font-family: &amp;quot;.AppleSystemUIFontMonospaced&amp;quot;; line-height: 180%;&quot; class=&quot;p1&quot;&gt;&lt;font style=&quot;font-size: 14px;&quot;&gt;- enemyFire&lt;/font&gt;&lt;span style=&quot;font-size: 14px; background-color: transparent; color: light-dark(rgb(0, 0, 0), rgb(255, 255, 255));&quot;&gt;Timer: int&lt;/span&gt;&lt;/p&gt;&lt;/div&gt;" style="text;strokeColor=none;fillColor=none;align=left;verticalAlign=top;spacingLeft=4;spacingRight=4;overflow=hidden;rotatable=0;points=[[0,0.5],[1,0.5]];portConstraint=eastwest;whiteSpace=wrap;html=1;" vertex="1" parent="in3-vSJeBL32kbLkJpHw-18">
          <mxGeometry y="26" width="240" height="84" as="geometry" />
        </mxCell>
        <mxCell id="in3-vSJeBL32kbLkJpHw-20" value="" style="line;strokeWidth=1;fillColor=none;align=left;verticalAlign=middle;spacingTop=-1;spacingLeft=3;spacingRight=3;rotatable=0;labelPosition=right;points=[];portConstraint=eastwest;strokeColor=inherit;" vertex="1" parent="in3-vSJeBL32kbLkJpHw-18">
          <mxGeometry y="110" width="240" height="8" as="geometry" />
        </mxCell>
        <mxCell id="in3-vSJeBL32kbLkJpHw-21" value="&lt;div style=&quot;line-height: 180%;&quot;&gt;&lt;p style=&quot;margin: 0px; font-variant-numeric: normal; font-variant-east-asian: normal; font-variant-alternates: normal; font-size-adjust: none; font-kerning: auto; font-optical-sizing: auto; font-feature-settings: normal; font-variation-settings: normal; font-variant-position: normal; font-stretch: normal; font-family: &amp;quot;.AppleSystemUIFontMonospaced&amp;quot;; line-height: 180%;&quot; class=&quot;p1&quot;&gt;&lt;font style=&quot;font-size: 14px;&quot;&gt;+ startEnemySpawn()&lt;/font&gt;&lt;/p&gt;&lt;p style=&quot;margin: 0px; font-variant-numeric: normal; font-variant-east-asian: normal; font-variant-alternates: normal; font-size-adjust: none; font-kerning: auto; font-optical-sizing: auto; font-feature-settings: normal; font-variation-settings: normal; font-variant-position: normal; font-stretch: normal; font-family: &amp;quot;.AppleSystemUIFontMonospaced&amp;quot;; line-height: 180%;&quot; class=&quot;p1&quot;&gt;&lt;font style=&quot;font-size: 14px;&quot;&gt;+ createEnemy()&lt;/font&gt;&lt;/p&gt;&lt;p style=&quot;margin: 0px; font-variant-numeric: normal; font-variant-east-asian: normal; font-variant-alternates: normal; font-size-adjust: none; font-kerning: auto; font-optical-sizing: auto; font-feature-settings: normal; font-variation-settings: normal; font-variant-position: normal; font-stretch: normal; font-family: &amp;quot;.AppleSystemUIFontMonospaced&amp;quot;; line-height: 180%;&quot; class=&quot;p1&quot;&gt;&lt;font style=&quot;font-size: 14px;&quot;&gt;+ moveEnemy()&lt;/font&gt;&lt;/p&gt;&lt;p style=&quot;margin: 0px; font-variant-numeric: normal; font-variant-east-asian: normal; font-variant-alternates: normal; font-size-adjust: none; font-kerning: auto; font-optical-sizing: auto; font-feature-settings: normal; font-variation-settings: normal; font-variant-position: normal; font-stretch: normal; font-family: &amp;quot;.AppleSystemUIFontMonospaced&amp;quot;; line-height: 180%;&quot; class=&quot;p1&quot;&gt;&lt;font style=&quot;font-size: 14px;&quot;&gt;+ pauseAllEnemies()&lt;/font&gt;&lt;/p&gt;&lt;p style=&quot;margin: 0px; font-variant-numeric: normal; font-variant-east-asian: normal; font-variant-alternates: normal; font-size-adjust: none; font-kerning: auto; font-optical-sizing: auto; font-feature-settings: normal; font-variation-settings: normal; font-variant-position: normal; font-stretch: normal; font-family: &amp;quot;.AppleSystemUIFontMonospaced&amp;quot;; line-height: 180%;&quot; class=&quot;p1&quot;&gt;&lt;font style=&quot;font-size: 14px;&quot;&gt;+ resumeAllEnemies()&lt;/font&gt;&lt;/p&gt;&lt;p style=&quot;margin: 0px; font-variant-numeric: normal; font-variant-east-asian: normal; font-variant-alternates: normal; font-size-adjust: none; font-kerning: auto; font-optical-sizing: auto; font-feature-settings: normal; font-variation-settings: normal; font-variant-position: normal; font-stretch: normal; font-family: &amp;quot;.AppleSystemUIFontMonospaced&amp;quot;; line-height: 180%;&quot; class=&quot;p1&quot;&gt;&lt;font style=&quot;font-size: 14px;&quot;&gt;+ startEnemyFire()&lt;/font&gt;&lt;/p&gt;&lt;p style=&quot;margin: 0px; font-variant-numeric: normal; font-variant-east-asian: normal; font-variant-alternates: normal; font-size-adjust: none; font-kerning: auto; font-optical-sizing: auto; font-feature-settings: normal; font-variation-settings: normal; font-variant-position: normal; font-stretch: normal; font-family: &amp;quot;.AppleSystemUIFontMonospaced&amp;quot;; line-height: 180%;&quot; class=&quot;p1&quot;&gt;&lt;font style=&quot;font-size: 14px;&quot;&gt;+ createEnemyBullet()&lt;/font&gt;&lt;/p&gt;&lt;p style=&quot;margin: 0px; font-variant-numeric: normal; font-variant-east-asian: normal; font-variant-alternates: normal; font-size-adjust: none; font-kerning: auto; font-optical-sizing: auto; font-feature-settings: normal; font-variation-settings: normal; font-variant-position: normal; font-stretch: normal; font-family: &amp;quot;.AppleSystemUIFontMonospaced&amp;quot;; line-height: 180%;&quot; class=&quot;p1&quot;&gt;&lt;font style=&quot;font-size: 14px;&quot;&gt;+ moveEnemyBullet()&lt;/font&gt;&lt;/p&gt;&lt;p style=&quot;margin: 0px; font-variant-numeric: normal; font-variant-east-asian: normal; font-variant-alternates: normal; font-size-adjust: none; font-kerning: auto; font-optical-sizing: auto; font-feature-settings: normal; font-variation-settings: normal; font-variant-position: normal; font-stretch: normal; font-family: &amp;quot;.AppleSystemUIFontMonospaced&amp;quot;; line-height: 180%;&quot; class=&quot;p1&quot;&gt;&lt;font style=&quot;font-size: 14px;&quot;&gt;+ removeEnemyBullet()&lt;/font&gt;&lt;/p&gt;&lt;/div&gt;" style="text;strokeColor=none;fillColor=none;align=left;verticalAlign=top;spacingLeft=4;spacingRight=4;overflow=hidden;rotatable=0;points=[[0,0.5],[1,0.5]];portConstraint=eastwest;whiteSpace=wrap;html=1;" vertex="1" parent="in3-vSJeBL32kbLkJpHw-18">
          <mxGeometry y="118" width="240" height="222" as="geometry" />
        </mxCell>
        <mxCell id="in3-vSJeBL32kbLkJpHw-22" value="&lt;span style=&quot;font-size: 14px;&quot;&gt;Bullet&lt;/span&gt;" style="swimlane;fontStyle=1;align=center;verticalAlign=top;childLayout=stackLayout;horizontal=1;startSize=26;horizontalStack=0;resizeParent=1;resizeParentMax=0;resizeLast=0;collapsible=1;marginBottom=0;whiteSpace=wrap;html=1;" vertex="1" parent="WIyWlLk6GJQsqaUBKTNV-1">
          <mxGeometry x="-100" y="720" width="190" height="180" as="geometry" />
        </mxCell>
        <mxCell id="in3-vSJeBL32kbLkJpHw-23" value="&lt;div style=&quot;line-height: 180%;&quot;&gt;&lt;p style=&quot;margin: 0px; font-variant-numeric: normal; font-variant-east-asian: normal; font-variant-alternates: normal; font-size-adjust: none; font-kerning: auto; font-optical-sizing: auto; font-feature-settings: normal; font-variation-settings: normal; font-variant-position: normal; font-stretch: normal; font-family: &amp;quot;.AppleSystemUIFontMonospaced&amp;quot;; line-height: 140%;&quot; class=&quot;p1&quot;&gt;&lt;font style=&quot;font-size: 14px;&quot;&gt;&lt;span style=&quot;background-color: transparent; color: light-dark(rgb(0, 0, 0), rgb(255, 255, 255)); line-height: 140%;&quot;&gt;-&lt;/span&gt;&amp;nbsp;bulletSpeedFactor&lt;/font&gt;&lt;/p&gt;&lt;/div&gt;" style="text;strokeColor=none;fillColor=none;align=left;verticalAlign=top;spacingLeft=4;spacingRight=4;overflow=hidden;rotatable=0;points=[[0,0.5],[1,0.5]];portConstraint=eastwest;whiteSpace=wrap;html=1;" vertex="1" parent="in3-vSJeBL32kbLkJpHw-22">
          <mxGeometry y="26" width="190" height="34" as="geometry" />
        </mxCell>
        <mxCell id="in3-vSJeBL32kbLkJpHw-24" value="" style="line;strokeWidth=1;fillColor=none;align=left;verticalAlign=middle;spacingTop=-1;spacingLeft=3;spacingRight=3;rotatable=0;labelPosition=right;points=[];portConstraint=eastwest;strokeColor=inherit;" vertex="1" parent="in3-vSJeBL32kbLkJpHw-22">
          <mxGeometry y="60" width="190" height="8" as="geometry" />
        </mxCell>
        <mxCell id="in3-vSJeBL32kbLkJpHw-25" value="&lt;div style=&quot;line-height: 180%;&quot;&gt;&lt;p style=&quot;margin: 0px; font-variant-numeric: normal; font-variant-east-asian: normal; font-variant-alternates: normal; font-size-adjust: none; font-kerning: auto; font-optical-sizing: auto; font-feature-settings: normal; font-variation-settings: normal; font-variant-position: normal; font-stretch: normal; font-family: &amp;quot;.AppleSystemUIFontMonospaced&amp;quot;;&quot; class=&quot;p1&quot;&gt;&lt;font style=&quot;font-size: 14px; line-height: 180%;&quot;&gt;+ createBulletForPlane()&lt;/font&gt;&lt;/p&gt;&lt;p style=&quot;margin: 0px; font-variant-numeric: normal; font-variant-east-asian: normal; font-variant-alternates: normal; font-size-adjust: none; font-kerning: auto; font-optical-sizing: auto; font-feature-settings: normal; font-variation-settings: normal; font-variant-position: normal; font-stretch: normal; font-family: &amp;quot;.AppleSystemUIFontMonospaced&amp;quot;;&quot; class=&quot;p1&quot;&gt;&lt;font style=&quot;font-size: 14px; line-height: 180%;&quot;&gt;+ moveBullet()&lt;/font&gt;&lt;/p&gt;&lt;p style=&quot;margin: 0px; font-variant-numeric: normal; font-variant-east-asian: normal; font-variant-alternates: normal; font-size-adjust: none; font-kerning: auto; font-optical-sizing: auto; font-feature-settings: normal; font-variation-settings: normal; font-variant-position: normal; font-stretch: normal; font-family: &amp;quot;.AppleSystemUIFontMonospaced&amp;quot;;&quot; class=&quot;p1&quot;&gt;&lt;font style=&quot;font-size: 14px; line-height: 180%;&quot;&gt;+ pauseAllBullets()&lt;/font&gt;&lt;/p&gt;&lt;p style=&quot;margin: 0px; font-variant-numeric: normal; font-variant-east-asian: normal; font-variant-alternates: normal; font-size-adjust: none; font-kerning: auto; font-optical-sizing: auto; font-feature-settings: normal; font-variation-settings: normal; font-variant-position: normal; font-stretch: normal; font-family: &amp;quot;.AppleSystemUIFontMonospaced&amp;quot;;&quot; class=&quot;p1&quot;&gt;&lt;font style=&quot;font-size: 14px; line-height: 180%;&quot;&gt;+ resumeAllBullets()&lt;/font&gt;&lt;/p&gt;&lt;/div&gt;" style="text;strokeColor=none;fillColor=none;align=left;verticalAlign=top;spacingLeft=4;spacingRight=4;overflow=hidden;rotatable=0;points=[[0,0.5],[1,0.5]];portConstraint=eastwest;whiteSpace=wrap;html=1;" vertex="1" parent="in3-vSJeBL32kbLkJpHw-22">
          <mxGeometry y="68" width="190" height="112" as="geometry" />
        </mxCell>
        <mxCell id="in3-vSJeBL32kbLkJpHw-35" value="&lt;span style=&quot;font-size: 14px;&quot;&gt;buff&lt;/span&gt;&lt;div&gt;&lt;span style=&quot;font-size: 14px;&quot;&gt;&lt;br&gt;&lt;/span&gt;&lt;/div&gt;" style="swimlane;fontStyle=1;align=center;verticalAlign=top;childLayout=stackLayout;horizontal=1;startSize=26;horizontalStack=0;resizeParent=1;resizeParentMax=0;resizeLast=0;collapsible=1;marginBottom=0;whiteSpace=wrap;html=1;" vertex="1" parent="WIyWlLk6GJQsqaUBKTNV-1">
          <mxGeometry x="400" y="20" width="260" height="400" as="geometry" />
        </mxCell>
        <mxCell id="in3-vSJeBL32kbLkJpHw-36" value="&lt;div style=&quot;line-height: 180%;&quot;&gt;&lt;font style=&quot;font-size: 14px;&quot;&gt;&lt;span style=&quot;background-color: transparent; color: light-dark(rgb(0, 0, 0), rgb(255, 255, 255));&quot; class=&quot;hljs-bullet&quot;&gt;-&lt;/span&gt;&lt;span style=&quot;background-color: transparent; color: light-dark(rgb(0, 0, 0), rgb(255, 255, 255));&quot;&gt;&amp;nbsp;&lt;/span&gt;&lt;span style=&quot;font-family: &amp;quot;.AppleSystemUIFontMonospaced&amp;quot;; background-color: transparent; color: light-dark(rgb(0, 0, 0), rgb(255, 255, 255));&quot;&gt;enemyDamageFactor: float&lt;/span&gt;&lt;/font&gt;&lt;/div&gt;" style="text;strokeColor=none;fillColor=none;align=left;verticalAlign=top;spacingLeft=4;spacingRight=4;overflow=hidden;rotatable=0;points=[[0,0.5],[1,0.5]];portConstraint=eastwest;whiteSpace=wrap;html=1;" vertex="1" parent="in3-vSJeBL32kbLkJpHw-35">
          <mxGeometry y="26" width="260" height="34" as="geometry" />
        </mxCell>
        <mxCell id="in3-vSJeBL32kbLkJpHw-37" value="" style="line;strokeWidth=1;fillColor=none;align=left;verticalAlign=middle;spacingTop=-1;spacingLeft=3;spacingRight=3;rotatable=0;labelPosition=right;points=[];portConstraint=eastwest;strokeColor=inherit;" vertex="1" parent="in3-vSJeBL32kbLkJpHw-35">
          <mxGeometry y="60" width="260" height="8" as="geometry" />
        </mxCell>
        <mxCell id="in3-vSJeBL32kbLkJpHw-38" value="&lt;div style=&quot;line-height: 180%;&quot;&gt;&lt;p style=&quot;margin: 0px; font-variant-numeric: normal; font-variant-east-asian: normal; font-variant-alternates: normal; font-size-adjust: none; font-kerning: auto; font-optical-sizing: auto; font-feature-settings: normal; font-variation-settings: normal; font-variant-position: normal; font-stretch: normal; font-family: &amp;quot;.AppleSystemUIFontMonospaced&amp;quot;;&quot; class=&quot;p1&quot;&gt;&lt;font style=&quot;font-size: 14px; line-height: 180%;&quot;&gt;+ dropTreasure()&lt;/font&gt;&lt;/p&gt;&lt;p style=&quot;margin: 0px; font-variant-numeric: normal; font-variant-east-asian: normal; font-variant-alternates: normal; font-size-adjust: none; font-kerning: auto; font-optical-sizing: auto; font-feature-settings: normal; font-variation-settings: normal; font-variant-position: normal; font-stretch: normal; font-family: &amp;quot;.AppleSystemUIFontMonospaced&amp;quot;;&quot; class=&quot;p1&quot;&gt;&lt;font style=&quot;font-size: 14px; line-height: 180%;&quot;&gt;+ moveTreasure()&lt;/font&gt;&lt;/p&gt;&lt;p style=&quot;margin: 0px; font-variant-numeric: normal; font-variant-east-asian: normal; font-variant-alternates: normal; font-size-adjust: none; font-kerning: auto; font-optical-sizing: auto; font-feature-settings: normal; font-variation-settings: normal; font-variant-position: normal; font-stretch: normal; font-family: &amp;quot;.AppleSystemUIFontMonospaced&amp;quot;;&quot; class=&quot;p1&quot;&gt;&lt;font style=&quot;font-size: 14px; line-height: 180%;&quot;&gt;+ removeTreasure()&lt;/font&gt;&lt;/p&gt;&lt;p style=&quot;margin: 0px; font-variant-numeric: normal; font-variant-east-asian: normal; font-variant-alternates: normal; font-size-adjust: none; font-kerning: auto; font-optical-sizing: auto; font-feature-settings: normal; font-variation-settings: normal; font-variant-position: normal; font-stretch: normal; font-family: &amp;quot;.AppleSystemUIFontMonospaced&amp;quot;;&quot; class=&quot;p1&quot;&gt;&lt;font style=&quot;font-size: 14px; line-height: 180%;&quot;&gt;+ checkTreasureHitPlayer()&lt;/font&gt;&lt;/p&gt;&lt;p style=&quot;margin: 0px; font-variant-numeric: normal; font-variant-east-asian: normal; font-variant-alternates: normal; font-size-adjust: none; font-kerning: auto; font-optical-sizing: auto; font-feature-settings: normal; font-variation-settings: normal; font-variant-position: normal; font-stretch: normal; font-family: &amp;quot;.AppleSystemUIFontMonospaced&amp;quot;;&quot; class=&quot;p1&quot;&gt;&lt;font style=&quot;font-size: 14px; line-height: 180%;&quot;&gt;+ applyTreasureEffect()&lt;/font&gt;&lt;/p&gt;&lt;p style=&quot;margin: 0px; font-variant-numeric: normal; font-variant-east-asian: normal; font-variant-alternates: normal; font-size-adjust: none; font-kerning: auto; font-optical-sizing: auto; font-feature-settings: normal; font-variation-settings: normal; font-variant-position: normal; font-stretch: normal; font-family: &amp;quot;.AppleSystemUIFontMonospaced&amp;quot;;&quot; class=&quot;p1&quot;&gt;&lt;font style=&quot;font-size: 14px; line-height: 180%;&quot;&gt;+ activateShield()&lt;/font&gt;&lt;/p&gt;&lt;p style=&quot;margin: 0px; font-variant-numeric: normal; font-variant-east-asian: normal; font-variant-alternates: normal; font-size-adjust: none; font-kerning: auto; font-optical-sizing: auto; font-feature-settings: normal; font-variation-settings: normal; font-variant-position: normal; font-stretch: normal; font-family: &amp;quot;.AppleSystemUIFontMonospaced&amp;quot;;&quot; class=&quot;p1&quot;&gt;&lt;font style=&quot;font-size: 14px; line-height: 180%;&quot;&gt;+ boostPlayerSpeed()&lt;/font&gt;&lt;/p&gt;&lt;p style=&quot;margin: 0px; font-variant-numeric: normal; font-variant-east-asian: normal; font-variant-alternates: normal; font-size-adjust: none; font-kerning: auto; font-optical-sizing: auto; font-feature-settings: normal; font-variation-settings: normal; font-variant-position: normal; font-stretch: normal; font-family: &amp;quot;.AppleSystemUIFontMonospaced&amp;quot;;&quot; class=&quot;p1&quot;&gt;&lt;font style=&quot;font-size: 14px; line-height: 180%;&quot;&gt;+ boostBulletSpeed()&lt;/font&gt;&lt;/p&gt;&lt;p style=&quot;margin: 0px; font-variant-numeric: normal; font-variant-east-asian: normal; font-variant-alternates: normal; font-size-adjust: none; font-kerning: auto; font-optical-sizing: auto; font-feature-settings: normal; font-variation-settings: normal; font-variant-position: normal; font-stretch: normal; font-family: &amp;quot;.AppleSystemUIFontMonospaced&amp;quot;;&quot; class=&quot;p1&quot;&gt;&lt;font style=&quot;font-size: 14px; line-height: 180%;&quot;&gt;+ increaseEnemyDamage()&lt;/font&gt;&lt;/p&gt;&lt;p style=&quot;margin: 0px; font-variant-numeric: normal; font-variant-east-asian: normal; font-variant-alternates: normal; font-size-adjust: none; font-kerning: auto; font-optical-sizing: auto; font-feature-settings: normal; font-variation-settings: normal; font-variant-position: normal; font-stretch: normal; font-family: &amp;quot;.AppleSystemUIFontMonospaced&amp;quot;;&quot; class=&quot;p1&quot;&gt;&lt;font style=&quot;font-size: 14px; line-height: 180%;&quot;&gt;+ boostEnemySpeed()&lt;/font&gt;&lt;/p&gt;&lt;p style=&quot;margin: 0px; font-variant-numeric: normal; font-variant-east-asian: normal; font-variant-alternates: normal; font-size-adjust: none; font-kerning: auto; font-optical-sizing: auto; font-feature-settings: normal; font-variation-settings: normal; font-variant-position: normal; font-stretch: normal; font-family: &amp;quot;.AppleSystemUIFontMonospaced&amp;quot;;&quot; class=&quot;p1&quot;&gt;&lt;font style=&quot;font-size: 14px; line-height: 180%;&quot;&gt;+ showFog()&lt;/font&gt;&lt;/p&gt;&lt;p style=&quot;margin: 0px; font-variant-numeric: normal; font-variant-east-asian: normal; font-variant-alternates: normal; font-size-adjust: none; font-kerning: auto; font-optical-sizing: auto; font-feature-settings: normal; font-variation-settings: normal; font-variant-position: normal; font-stretch: normal; font-family: &amp;quot;.AppleSystemUIFontMonospaced&amp;quot;;&quot; class=&quot;p1&quot;&gt;&lt;font style=&quot;font-size: 14px; line-height: 180%;&quot;&gt;+ showBuff()&lt;/font&gt;&lt;/p&gt;&lt;/div&gt;" style="text;strokeColor=none;fillColor=none;align=left;verticalAlign=top;spacingLeft=4;spacingRight=4;overflow=hidden;rotatable=0;points=[[0,0.5],[1,0.5]];portConstraint=eastwest;whiteSpace=wrap;html=1;" vertex="1" parent="in3-vSJeBL32kbLkJpHw-35">
          <mxGeometry y="68" width="260" height="332" as="geometry" />
        </mxCell>
        <mxCell id="in3-vSJeBL32kbLkJpHw-45" value="&lt;span style=&quot;font-size: 14px;&quot;&gt;roundFlow&lt;/span&gt;" style="swimlane;fontStyle=1;align=center;verticalAlign=top;childLayout=stackLayout;horizontal=1;startSize=26;horizontalStack=0;resizeParent=1;resizeParentMax=0;resizeLast=0;collapsible=1;marginBottom=0;whiteSpace=wrap;html=1;" vertex="1" parent="WIyWlLk6GJQsqaUBKTNV-1">
          <mxGeometry x="-370" y="250" width="230" height="90" as="geometry" />
        </mxCell>
        <mxCell id="in3-vSJeBL32kbLkJpHw-46" value="&lt;div style=&quot;line-height: 180%;&quot;&gt;&lt;p style=&quot;margin: 0px; font-variant-numeric: normal; font-variant-east-asian: normal; font-variant-alternates: normal; font-size-adjust: none; font-kerning: auto; font-optical-sizing: auto; font-feature-settings: normal; font-variation-settings: normal; font-variant-position: normal; font-stretch: normal; line-height: normal; font-family: &amp;quot;.AppleSystemUIFontMonospaced&amp;quot;;&quot; class=&quot;p1&quot;&gt;&lt;font style=&quot;font-size: 14px;&quot;&gt;+ checkRound()&lt;/font&gt;&lt;/p&gt;&lt;p style=&quot;margin: 0px; font-variant-numeric: normal; font-variant-east-asian: normal; font-variant-alternates: normal; font-size-adjust: none; font-kerning: auto; font-optical-sizing: auto; font-feature-settings: normal; font-variation-settings: normal; font-variant-position: normal; font-stretch: normal; line-height: normal; font-family: &amp;quot;.AppleSystemUIFontMonospaced&amp;quot;;&quot; class=&quot;p1&quot;&gt;&lt;span style=&quot;background-color: transparent; color: light-dark(rgb(0, 0, 0), rgb(255, 255, 255));&quot;&gt;&lt;font style=&quot;font-size: 14px;&quot;&gt;+ resetGameForNextRound()&lt;/font&gt;&lt;/span&gt;&lt;/p&gt;&lt;/div&gt;" style="text;strokeColor=none;fillColor=none;align=left;verticalAlign=top;spacingLeft=4;spacingRight=4;overflow=hidden;rotatable=0;points=[[0,0.5],[1,0.5]];portConstraint=eastwest;whiteSpace=wrap;html=1;" vertex="1" parent="in3-vSJeBL32kbLkJpHw-45">
          <mxGeometry y="26" width="230" height="64" as="geometry" />
        </mxCell>
        <mxCell id="in3-vSJeBL32kbLkJpHw-53" value="&lt;span style=&quot;font-size: 14px;&quot;&gt;bgMove&lt;/span&gt;" style="swimlane;fontStyle=1;align=center;verticalAlign=top;childLayout=stackLayout;horizontal=1;startSize=26;horizontalStack=0;resizeParent=1;resizeParentMax=0;resizeLast=0;collapsible=1;marginBottom=0;whiteSpace=wrap;html=1;" vertex="1" parent="WIyWlLk6GJQsqaUBKTNV-1">
          <mxGeometry x="-370" y="70" width="240" height="110" as="geometry" />
        </mxCell>
        <mxCell id="in3-vSJeBL32kbLkJpHw-54" value="&lt;div style=&quot;line-height: 180%;&quot;&gt;&lt;p style=&quot;margin: 0px; font-variant-numeric: normal; font-variant-east-asian: normal; font-variant-alternates: normal; font-size-adjust: none; font-kerning: auto; font-optical-sizing: auto; font-feature-settings: normal; font-variation-settings: normal; font-variant-position: normal; font-stretch: normal; line-height: normal; font-family: &amp;quot;.AppleSystemUIFontMonospaced&amp;quot;;&quot; class=&quot;p1&quot;&gt;&lt;font style=&quot;font-size: 14px;&quot;&gt;- bgPosY: int&lt;/font&gt;&lt;/p&gt;&lt;p style=&quot;margin: 0px; font-variant-numeric: normal; font-variant-east-asian: normal; font-variant-alternates: normal; font-size-adjust: none; font-kerning: auto; font-optical-sizing: auto; font-feature-settings: normal; font-variation-settings: normal; font-variant-position: normal; font-stretch: normal; font-size: 13px; line-height: normal; font-family: &amp;quot;.AppleSystemUIFontMonospaced&amp;quot;;&quot; class=&quot;p1&quot;&gt;&lt;br&gt;&lt;/p&gt;&lt;/div&gt;" style="text;strokeColor=none;fillColor=none;align=left;verticalAlign=top;spacingLeft=4;spacingRight=4;overflow=hidden;rotatable=0;points=[[0,0.5],[1,0.5]];portConstraint=eastwest;whiteSpace=wrap;html=1;" vertex="1" parent="in3-vSJeBL32kbLkJpHw-53">
          <mxGeometry y="26" width="240" height="34" as="geometry" />
        </mxCell>
        <mxCell id="in3-vSJeBL32kbLkJpHw-55" value="" style="line;strokeWidth=1;fillColor=none;align=left;verticalAlign=middle;spacingTop=-1;spacingLeft=3;spacingRight=3;rotatable=0;labelPosition=right;points=[];portConstraint=eastwest;strokeColor=inherit;" vertex="1" parent="in3-vSJeBL32kbLkJpHw-53">
          <mxGeometry y="60" width="240" height="8" as="geometry" />
        </mxCell>
        <mxCell id="in3-vSJeBL32kbLkJpHw-56" value="&lt;div style=&quot;line-height: 180%;&quot;&gt;&lt;p style=&quot;margin: 0px; font-variant-numeric: normal; font-variant-east-asian: normal; font-variant-alternates: normal; font-size-adjust: none; font-kerning: auto; font-optical-sizing: auto; font-feature-settings: normal; font-variation-settings: normal; font-variant-position: normal; font-stretch: normal; line-height: normal; font-family: &amp;quot;.AppleSystemUIFontMonospaced&amp;quot;;&quot; class=&quot;p1&quot;&gt;&lt;font style=&quot;font-size: 14px;&quot;&gt;+ bgMove()&lt;/font&gt;&lt;/p&gt;&lt;/div&gt;" style="text;strokeColor=none;fillColor=none;align=left;verticalAlign=top;spacingLeft=4;spacingRight=4;overflow=hidden;rotatable=0;points=[[0,0.5],[1,0.5]];portConstraint=eastwest;whiteSpace=wrap;html=1;" vertex="1" parent="in3-vSJeBL32kbLkJpHw-53">
          <mxGeometry y="68" width="240" height="42" as="geometry" />
        </mxCell>
        <mxCell id="in3-vSJeBL32kbLkJpHw-61" value="&lt;span style=&quot;font-size: 14px;&quot;&gt;gameOver&lt;/span&gt;" style="swimlane;fontStyle=1;align=center;verticalAlign=top;childLayout=stackLayout;horizontal=1;startSize=26;horizontalStack=0;resizeParent=1;resizeParentMax=0;resizeLast=0;collapsible=1;marginBottom=0;whiteSpace=wrap;html=1;" vertex="1" parent="WIyWlLk6GJQsqaUBKTNV-1">
          <mxGeometry x="550" y="600" width="210" height="60" as="geometry" />
        </mxCell>
        <mxCell id="in3-vSJeBL32kbLkJpHw-62" value="&lt;div style=&quot;line-height: 180%;&quot;&gt;&lt;p style=&quot;margin: 0px; font-variant-numeric: normal; font-variant-east-asian: normal; font-variant-alternates: normal; font-size-adjust: none; font-kerning: auto; font-optical-sizing: auto; font-feature-settings: normal; font-variation-settings: normal; font-variant-position: normal; font-stretch: normal; font-family: &amp;quot;.AppleSystemUIFontMonospaced&amp;quot;; line-height: 180%;&quot; class=&quot;p1&quot;&gt;&lt;font style=&quot;font-size: 14px;&quot;&gt;+ doGameOver()&lt;/font&gt;&lt;/p&gt;&lt;/div&gt;" style="text;strokeColor=none;fillColor=none;align=left;verticalAlign=top;spacingLeft=4;spacingRight=4;overflow=hidden;rotatable=0;points=[[0,0.5],[1,0.5]];portConstraint=eastwest;whiteSpace=wrap;html=1;" vertex="1" parent="in3-vSJeBL32kbLkJpHw-61">
          <mxGeometry y="26" width="210" height="34" as="geometry" />
        </mxCell>
        <mxCell id="in3-vSJeBL32kbLkJpHw-68" value="" style="endArrow=diamondThin;endFill=1;endSize=24;html=1;rounded=0;exitX=-0.003;exitY=0.577;exitDx=0;exitDy=0;exitPerimeter=0;" edge="1" parent="WIyWlLk6GJQsqaUBKTNV-1" source="in3-vSJeBL32kbLkJpHw-38">
          <mxGeometry width="160" relative="1" as="geometry">
            <mxPoint x="240" y="290" as="sourcePoint" />
            <mxPoint x="290" y="279" as="targetPoint" />
          </mxGeometry>
        </mxCell>
        <mxCell id="in3-vSJeBL32kbLkJpHw-71" value="" style="endArrow=none;html=1;rounded=0;entryX=0.5;entryY=0;entryDx=0;entryDy=0;" edge="1" parent="WIyWlLk6GJQsqaUBKTNV-1" target="in3-vSJeBL32kbLkJpHw-18">
          <mxGeometry width="50" height="50" relative="1" as="geometry">
            <mxPoint x="280" y="660" as="sourcePoint" />
            <mxPoint x="350" y="520" as="targetPoint" />
          </mxGeometry>
        </mxCell>
        <mxCell id="in3-vSJeBL32kbLkJpHw-72" value="" style="endArrow=none;html=1;rounded=0;" edge="1" parent="WIyWlLk6GJQsqaUBKTNV-1">
          <mxGeometry width="50" height="50" relative="1" as="geometry">
            <mxPoint x="-30" y="660" as="sourcePoint" />
            <mxPoint x="280" y="660" as="targetPoint" />
          </mxGeometry>
        </mxCell>
        <mxCell id="in3-vSJeBL32kbLkJpHw-73" value="" style="endArrow=none;html=1;rounded=0;" edge="1" parent="WIyWlLk6GJQsqaUBKTNV-1">
          <mxGeometry width="50" height="50" relative="1" as="geometry">
            <mxPoint x="-30" y="720" as="sourcePoint" />
            <mxPoint x="-30" y="660" as="targetPoint" />
          </mxGeometry>
        </mxCell>
        <mxCell id="in3-vSJeBL32kbLkJpHw-75" value="" style="endArrow=diamondThin;endFill=1;endSize=24;html=1;rounded=0;" edge="1" parent="WIyWlLk6GJQsqaUBKTNV-1">
          <mxGeometry width="160" relative="1" as="geometry">
            <mxPoint x="120" y="660" as="sourcePoint" />
            <mxPoint x="120" y="560" as="targetPoint" />
          </mxGeometry>
        </mxCell>
        <mxCell id="in3-vSJeBL32kbLkJpHw-84" value="&lt;span style=&quot;font-size: 14px;&quot;&gt;planeMove&lt;/span&gt;" style="swimlane;fontStyle=1;align=center;verticalAlign=top;childLayout=stackLayout;horizontal=1;startSize=26;horizontalStack=0;resizeParent=1;resizeParentMax=0;resizeLast=0;collapsible=1;marginBottom=0;whiteSpace=wrap;html=1;" vertex="1" parent="WIyWlLk6GJQsqaUBKTNV-1">
          <mxGeometry x="540" y="480" width="210" height="60" as="geometry" />
        </mxCell>
        <mxCell id="in3-vSJeBL32kbLkJpHw-85" value="&lt;div style=&quot;line-height: 180%;&quot;&gt;&lt;p style=&quot;margin: 0px; font-variant-numeric: normal; font-variant-east-asian: normal; font-variant-alternates: normal; font-size-adjust: none; font-kerning: auto; font-optical-sizing: auto; font-feature-settings: normal; font-variation-settings: normal; font-variant-position: normal; font-stretch: normal; font-family: &amp;quot;.AppleSystemUIFontMonospaced&amp;quot;; line-height: 180%;&quot; class=&quot;p1&quot;&gt;&lt;span style=&quot;font-size: 14px;&quot;&gt;+ startMovement()&lt;/span&gt;&lt;br&gt;&lt;/p&gt;&lt;/div&gt;" style="text;strokeColor=none;fillColor=none;align=left;verticalAlign=top;spacingLeft=4;spacingRight=4;overflow=hidden;rotatable=0;points=[[0,0.5],[1,0.5]];portConstraint=eastwest;whiteSpace=wrap;html=1;" vertex="1" parent="in3-vSJeBL32kbLkJpHw-84">
          <mxGeometry y="26" width="210" height="34" as="geometry" />
        </mxCell>
        <mxCell id="in3-vSJeBL32kbLkJpHw-26" value="&lt;span style=&quot;font-size: 14px;&quot;&gt;Collision&lt;/span&gt;" style="swimlane;fontStyle=1;align=center;verticalAlign=top;childLayout=stackLayout;horizontal=1;startSize=26;horizontalStack=0;resizeParent=1;resizeParentMax=0;resizeLast=0;collapsible=1;marginBottom=0;whiteSpace=wrap;html=1;" vertex="1" parent="WIyWlLk6GJQsqaUBKTNV-1">
          <mxGeometry x="500" y="730" width="240" height="200" as="geometry" />
        </mxCell>
        <mxCell id="in3-vSJeBL32kbLkJpHw-27" value="&lt;div style=&quot;line-height: 180%;&quot;&gt;&lt;p style=&quot;margin: 0px; font-variant-numeric: normal; font-variant-east-asian: normal; font-variant-alternates: normal; font-size-adjust: none; font-kerning: auto; font-optical-sizing: auto; font-feature-settings: normal; font-variation-settings: normal; font-variant-position: normal; font-stretch: normal; font-family: &amp;quot;.AppleSystemUIFontMonospaced&amp;quot;;&quot; class=&quot;p1&quot;&gt;&lt;font style=&quot;font-size: 14px; line-height: 180%;&quot;&gt;+ collide()&lt;/font&gt;&lt;/p&gt;&lt;p style=&quot;margin: 0px; font-variant-numeric: normal; font-variant-east-asian: normal; font-variant-alternates: normal; font-size-adjust: none; font-kerning: auto; font-optical-sizing: auto; font-feature-settings: normal; font-variation-settings: normal; font-variant-position: normal; font-stretch: normal; font-family: &amp;quot;.AppleSystemUIFontMonospaced&amp;quot;;&quot; class=&quot;p1&quot;&gt;&lt;font style=&quot;font-size: 14px; line-height: 180%;&quot;&gt;+ checkCollisionWithBullets()&lt;/font&gt;&lt;/p&gt;&lt;p style=&quot;margin: 0px; font-variant-numeric: normal; font-variant-east-asian: normal; font-variant-alternates: normal; font-size-adjust: none; font-kerning: auto; font-optical-sizing: auto; font-feature-settings: normal; font-variation-settings: normal; font-variant-position: normal; font-stretch: normal; font-family: &amp;quot;.AppleSystemUIFontMonospaced&amp;quot;;&quot; class=&quot;p1&quot;&gt;&lt;span style=&quot;font-size: 14px; background-color: transparent; color: light-dark(rgb(0, 0, 0), rgb(255, 255, 255));&quot;&gt;+ killEnemy()&lt;/span&gt;&lt;/p&gt;&lt;p style=&quot;margin: 0px; font-variant-numeric: normal; font-variant-east-asian: normal; font-variant-alternates: normal; font-size-adjust: none; font-kerning: auto; font-optical-sizing: auto; font-feature-settings: normal; font-variation-settings: normal; font-variant-position: normal; font-stretch: normal; font-family: &amp;quot;.AppleSystemUIFontMonospaced&amp;quot;;&quot; class=&quot;p1&quot;&gt;&lt;font style=&quot;font-size: 14px; line-height: 180%;&quot;&gt;+ checkBulletHitPlayer()&lt;/font&gt;&lt;/p&gt;&lt;p style=&quot;margin: 0px; font-variant-numeric: normal; font-variant-east-asian: normal; font-variant-alternates: normal; font-size-adjust: none; font-kerning: auto; font-optical-sizing: auto; font-feature-settings: normal; font-variation-settings: normal; font-variant-position: normal; font-stretch: normal; font-family: &amp;quot;.AppleSystemUIFontMonospaced&amp;quot;;&quot; class=&quot;p1&quot;&gt;&lt;font style=&quot;font-size: 14px; line-height: 180%;&quot;&gt;+ checkCollisionWithPlanes()&lt;/font&gt;&lt;/p&gt;&lt;p style=&quot;margin: 0px; font-variant-numeric: normal; font-variant-east-asian: normal; font-variant-alternates: normal; font-size-adjust: none; font-kerning: auto; font-optical-sizing: auto; font-feature-settings: normal; font-variation-settings: normal; font-variant-position: normal; font-stretch: normal; font-family: &amp;quot;.AppleSystemUIFontMonospaced&amp;quot;;&quot; class=&quot;p1&quot;&gt;&lt;font style=&quot;font-size: 14px; line-height: 180%;&quot;&gt;+ shakeWindow()&lt;br&gt;&lt;/font&gt;&lt;/p&gt;&lt;/div&gt;" style="text;strokeColor=none;fillColor=none;align=left;verticalAlign=top;spacingLeft=4;spacingRight=4;overflow=hidden;rotatable=0;points=[[0,0.5],[1,0.5]];portConstraint=eastwest;whiteSpace=wrap;html=1;" vertex="1" parent="in3-vSJeBL32kbLkJpHw-26">
          <mxGeometry y="26" width="240" height="174" as="geometry" />
        </mxCell>
        <mxCell id="in3-vSJeBL32kbLkJpHw-87" value="&lt;font style=&quot;font-size: 10px;&quot;&gt;1&lt;/font&gt;" style="text;html=1;align=center;verticalAlign=middle;whiteSpace=wrap;rounded=0;" vertex="1" parent="WIyWlLk6GJQsqaUBKTNV-1">
          <mxGeometry x="290" y="250" width="30" height="20" as="geometry" />
        </mxCell>
        <mxCell id="in3-vSJeBL32kbLkJpHw-90" value="&lt;p style=&quot;margin: 0px; font-variant-numeric: normal; font-variant-east-asian: normal; font-variant-alternates: normal; font-size-adjust: none; font-kerning: auto; font-optical-sizing: auto; font-feature-settings: normal; font-variation-settings: normal; font-variant-position: normal; font-stretch: normal; line-height: normal; font-family: &amp;quot;.AppleSystemUIFontMonospaced&amp;quot;; color: rgb(14, 14, 14); text-align: start;&quot; class=&quot;p1&quot;&gt;&lt;font style=&quot;font-size: 10px;&quot;&gt;0..*&lt;/font&gt;&lt;/p&gt;" style="text;html=1;align=center;verticalAlign=middle;whiteSpace=wrap;rounded=0;" vertex="1" parent="WIyWlLk6GJQsqaUBKTNV-1">
          <mxGeometry x="-60" y="697" width="30" height="20" as="geometry" />
        </mxCell>
        <mxCell id="in3-vSJeBL32kbLkJpHw-98" value="&lt;font style=&quot;font-size: 10px;&quot;&gt;1&lt;/font&gt;" style="text;html=1;align=center;verticalAlign=middle;whiteSpace=wrap;rounded=0;" vertex="1" parent="WIyWlLk6GJQsqaUBKTNV-1">
          <mxGeometry x="120" y="560" width="30" height="20" as="geometry" />
        </mxCell>
        <mxCell id="in3-vSJeBL32kbLkJpHw-99" value="&lt;p style=&quot;margin: 0px; font-variant-numeric: normal; font-variant-east-asian: normal; font-variant-alternates: normal; font-size-adjust: none; font-kerning: auto; font-optical-sizing: auto; font-feature-settings: normal; font-variation-settings: normal; font-variant-position: normal; font-stretch: normal; line-height: normal; font-family: &amp;quot;.AppleSystemUIFontMonospaced&amp;quot;; color: rgb(14, 14, 14); text-align: start;&quot; class=&quot;p1&quot;&gt;&lt;font style=&quot;font-size: 10px;&quot;&gt;0..*&lt;/font&gt;&lt;/p&gt;" style="text;html=1;align=center;verticalAlign=middle;whiteSpace=wrap;rounded=0;" vertex="1" parent="WIyWlLk6GJQsqaUBKTNV-1">
          <mxGeometry x="370" y="260" width="30" height="20" as="geometry" />
        </mxCell>
        <mxCell id="in3-vSJeBL32kbLkJpHw-100" value="&lt;p style=&quot;margin: 0px; font-variant-numeric: normal; font-variant-east-asian: normal; font-variant-alternates: normal; font-size-adjust: none; font-kerning: auto; font-optical-sizing: auto; font-feature-settings: normal; font-variation-settings: normal; font-variant-position: normal; font-stretch: normal; line-height: normal; font-family: &amp;quot;.AppleSystemUIFontMonospaced&amp;quot;; color: rgb(14, 14, 14); text-align: start;&quot; class=&quot;p1&quot;&gt;&lt;font style=&quot;font-size: 10px;&quot;&gt;0..*&lt;/font&gt;&lt;/p&gt;" style="text;html=1;align=center;verticalAlign=middle;whiteSpace=wrap;rounded=0;" vertex="1" parent="WIyWlLk6GJQsqaUBKTNV-1">
          <mxGeometry x="280" y="677" width="30" height="20" as="geometry" />
        </mxCell>
        <mxCell id="in3-vSJeBL32kbLkJpHw-104" value="" style="endArrow=none;html=1;rounded=0;exitX=0.999;exitY=0.164;exitDx=0;exitDy=0;exitPerimeter=0;entryX=0;entryY=0.5;entryDx=0;entryDy=0;" edge="1" parent="WIyWlLk6GJQsqaUBKTNV-1" source="in3-vSJeBL32kbLkJpHw-21" target="in3-vSJeBL32kbLkJpHw-27">
          <mxGeometry width="50" height="50" relative="1" as="geometry">
            <mxPoint x="530" y="690" as="sourcePoint" />
            <mxPoint x="580" y="640" as="targetPoint" />
          </mxGeometry>
        </mxCell>
        <mxCell id="in3-vSJeBL32kbLkJpHw-105" value="" style="endArrow=none;html=1;rounded=0;exitX=0.488;exitY=0.985;exitDx=0;exitDy=0;exitPerimeter=0;entryX=0.5;entryY=0;entryDx=0;entryDy=0;" edge="1" parent="WIyWlLk6GJQsqaUBKTNV-1" source="in3-vSJeBL32kbLkJpHw-62" target="in3-vSJeBL32kbLkJpHw-26">
          <mxGeometry width="50" height="50" relative="1" as="geometry">
            <mxPoint x="410" y="861" as="sourcePoint" />
            <mxPoint x="510" y="853" as="targetPoint" />
          </mxGeometry>
        </mxCell>
        <mxCell id="in3-vSJeBL32kbLkJpHw-106" value="" style="endArrow=none;html=1;rounded=0;" edge="1" parent="WIyWlLk6GJQsqaUBKTNV-1">
          <mxGeometry width="50" height="50" relative="1" as="geometry">
            <mxPoint y="1080" as="sourcePoint" />
            <mxPoint y="900" as="targetPoint" />
          </mxGeometry>
        </mxCell>
        <mxCell id="in3-vSJeBL32kbLkJpHw-108" value="" style="endArrow=none;html=1;rounded=0;entryX=0.583;entryY=1;entryDx=0;entryDy=0;entryPerimeter=0;" edge="1" parent="WIyWlLk6GJQsqaUBKTNV-1" target="in3-vSJeBL32kbLkJpHw-27">
          <mxGeometry width="50" height="50" relative="1" as="geometry">
            <mxPoint x="640" y="1080" as="sourcePoint" />
            <mxPoint x="400" y="780" as="targetPoint" />
          </mxGeometry>
        </mxCell>
        <mxCell id="in3-vSJeBL32kbLkJpHw-109" value="" style="endArrow=none;html=1;rounded=0;" edge="1" parent="WIyWlLk6GJQsqaUBKTNV-1">
          <mxGeometry width="50" height="50" relative="1" as="geometry">
            <mxPoint y="1080" as="sourcePoint" />
            <mxPoint x="640" y="1080" as="targetPoint" />
          </mxGeometry>
        </mxCell>
        <mxCell id="in3-vSJeBL32kbLkJpHw-110" value="" style="endArrow=none;html=1;rounded=0;entryX=0.128;entryY=0.995;entryDx=0;entryDy=0;entryPerimeter=0;exitX=0.095;exitY=0.007;exitDx=0;exitDy=0;exitPerimeter=0;" edge="1" parent="WIyWlLk6GJQsqaUBKTNV-1" source="in3-vSJeBL32kbLkJpHw-26" target="in3-vSJeBL32kbLkJpHw-38">
          <mxGeometry width="50" height="50" relative="1" as="geometry">
            <mxPoint x="300" y="600" as="sourcePoint" />
            <mxPoint x="350" y="550" as="targetPoint" />
          </mxGeometry>
        </mxCell>
        <mxCell id="in3-vSJeBL32kbLkJpHw-111" value="" style="endArrow=none;html=1;rounded=0;exitX=0.996;exitY=0.798;exitDx=0;exitDy=0;exitPerimeter=0;entryX=0;entryY=0.5;entryDx=0;entryDy=0;" edge="1" parent="WIyWlLk6GJQsqaUBKTNV-1" target="in3-vSJeBL32kbLkJpHw-85">
          <mxGeometry width="50" height="50" relative="1" as="geometry">
            <mxPoint x="288.52" y="454.15200000000004" as="sourcePoint" />
            <mxPoint x="480" y="520" as="targetPoint" />
          </mxGeometry>
        </mxCell>
        <mxCell id="in3-vSJeBL32kbLkJpHw-113" value="" style="endArrow=none;html=1;rounded=0;exitX=0.999;exitY=0.912;exitDx=0;exitDy=0;exitPerimeter=0;entryX=0.002;entryY=0.262;entryDx=0;entryDy=0;entryPerimeter=0;" edge="1" parent="WIyWlLk6GJQsqaUBKTNV-1" source="in3-vSJeBL32kbLkJpHw-54">
          <mxGeometry width="50" height="50" relative="1" as="geometry">
            <mxPoint y="370" as="sourcePoint" />
            <mxPoint x="-79.25999999999976" y="173.288" as="targetPoint" />
          </mxGeometry>
        </mxCell>
        <mxCell id="in3-vSJeBL32kbLkJpHw-119" value="" style="endArrow=none;html=1;rounded=0;exitX=1.001;exitY=0.411;exitDx=0;exitDy=0;exitPerimeter=0;entryX=-0.003;entryY=0.454;entryDx=0;entryDy=0;entryPerimeter=0;" edge="1" parent="WIyWlLk6GJQsqaUBKTNV-1" source="in3-vSJeBL32kbLkJpHw-46">
          <mxGeometry width="50" height="50" relative="1" as="geometry">
            <mxPoint x="-130" y="260" as="sourcePoint" />
            <mxPoint x="-81.11000000000013" y="273.89599999999996" as="targetPoint" />
          </mxGeometry>
        </mxCell>
        <mxCell id="in3-vSJeBL32kbLkJpHw-132" value="&lt;span style=&quot;font-size: 14px;&quot;&gt;Game&lt;/span&gt;" style="swimlane;fontStyle=1;align=center;verticalAlign=top;childLayout=stackLayout;horizontal=1;startSize=26;horizontalStack=0;resizeParent=1;resizeParentMax=0;resizeLast=0;collapsible=1;marginBottom=0;whiteSpace=wrap;html=1;" vertex="1" parent="WIyWlLk6GJQsqaUBKTNV-1">
          <mxGeometry x="-80" y="-20" width="370" height="580" as="geometry" />
        </mxCell>
        <mxCell id="in3-vSJeBL32kbLkJpHw-133" value="&lt;div style=&quot;line-height: 180%;&quot;&gt;&lt;p style=&quot;font-variant-numeric: normal; font-variant-east-asian: normal; font-variant-alternates: normal; font-size-adjust: none; font-kerning: auto; font-optical-sizing: auto; font-feature-settings: normal; font-variation-settings: normal; font-variant-position: normal; font-stretch: normal; line-height: 21.6px; font-family: &amp;quot;.AppleSystemUIFontMonospaced&amp;quot;; margin: 0px;&quot; class=&quot;p1&quot;&gt;&lt;font style=&quot;font-size: 14px;&quot;&gt;- planeScale: float&lt;/font&gt;&lt;/p&gt;&lt;p style=&quot;font-variant-numeric: normal; font-variant-east-asian: normal; font-variant-alternates: normal; font-size-adjust: none; font-kerning: auto; font-optical-sizing: auto; font-feature-settings: normal; font-variation-settings: normal; font-variant-position: normal; font-stretch: normal; line-height: 21.6px; font-family: &amp;quot;.AppleSystemUIFontMonospaced&amp;quot;; margin: 0px;&quot; class=&quot;p1&quot;&gt;&lt;font style=&quot;font-size: 14px;&quot;&gt;- bulletScale: float&lt;/font&gt;&lt;/p&gt;&lt;p style=&quot;font-variant-numeric: normal; font-variant-east-asian: normal; font-variant-alternates: normal; font-size-adjust: none; font-kerning: auto; font-optical-sizing: auto; font-feature-settings: normal; font-variation-settings: normal; font-variant-position: normal; font-stretch: normal; line-height: 21.6px; font-family: &amp;quot;.AppleSystemUIFontMonospaced&amp;quot;; margin: 0px;&quot; class=&quot;p1&quot;&gt;&lt;font style=&quot;font-size: 14px;&quot;&gt;- enemyScale: float&lt;/font&gt;&lt;/p&gt;&lt;p style=&quot;font-variant-numeric: normal; font-variant-east-asian: normal; font-variant-alternates: normal; font-size-adjust: none; font-kerning: auto; font-optical-sizing: auto; font-feature-settings: normal; font-variation-settings: normal; font-variant-position: normal; font-stretch: normal; line-height: 21.6px; font-family: &amp;quot;.AppleSystemUIFontMonospaced&amp;quot;; margin: 0px;&quot; class=&quot;p1&quot;&gt;&lt;font style=&quot;font-size: 14px;&quot;&gt;- enemyBulletScale: float&lt;/font&gt;&lt;/p&gt;&lt;p style=&quot;font-variant-numeric: normal; font-variant-east-asian: normal; font-variant-alternates: normal; font-size-adjust: none; font-kerning: auto; font-optical-sizing: auto; font-feature-settings: normal; font-variation-settings: normal; font-variant-position: normal; font-stretch: normal; line-height: 21.6px; font-family: &amp;quot;.AppleSystemUIFontMonospaced&amp;quot;; margin: 0px;&quot; class=&quot;p1&quot;&gt;&lt;font style=&quot;font-size: 14px;&quot;&gt;- gameStatus: boolean&lt;/font&gt;&lt;/p&gt;&lt;p style=&quot;font-variant-numeric: normal; font-variant-east-asian: normal; font-variant-alternates: normal; font-size-adjust: none; font-kerning: auto; font-optical-sizing: auto; font-feature-settings: normal; font-variation-settings: normal; font-variant-position: normal; font-stretch: normal; line-height: 21.6px; font-family: &amp;quot;.AppleSystemUIFontMonospaced&amp;quot;; margin: 0px;&quot; class=&quot;p1&quot;&gt;&lt;font style=&quot;font-size: 14px;&quot;&gt;- isDouble: boolean&lt;/font&gt;&lt;/p&gt;&lt;p style=&quot;font-variant-numeric: normal; font-variant-east-asian: normal; font-variant-alternates: normal; font-size-adjust: none; font-kerning: auto; font-optical-sizing: auto; font-feature-settings: normal; font-variation-settings: normal; font-variant-position: normal; font-stretch: normal; line-height: 21.6px; font-family: &amp;quot;.AppleSystemUIFontMonospaced&amp;quot;; margin: 0px;&quot; class=&quot;p1&quot;&gt;&lt;font style=&quot;font-size: 14px;&quot;&gt;- plane1X, plane1Y, plane2X, plane2Y: int&lt;/font&gt;&lt;/p&gt;&lt;p style=&quot;font-variant-numeric: normal; font-variant-east-asian: normal; font-variant-alternates: normal; font-size-adjust: none; font-kerning: auto; font-optical-sizing: auto; font-feature-settings: normal; font-variation-settings: normal; font-variant-position: normal; font-stretch: normal; line-height: 21.6px; font-family: &amp;quot;.AppleSystemUIFontMonospaced&amp;quot;; margin: 0px;&quot; class=&quot;p1&quot;&gt;&lt;span style=&quot;background-color: transparent; color: light-dark(rgb(0, 0, 0), rgb(255, 255, 255));&quot;&gt;&lt;font style=&quot;font-size: 14px;&quot;&gt;- plane1Hp, plane2Hp: int&lt;/font&gt;&lt;/span&gt;&lt;/p&gt;&lt;p style=&quot;font-variant-numeric: normal; font-variant-east-asian: normal; font-variant-alternates: normal; font-size-adjust: none; font-kerning: auto; font-optical-sizing: auto; font-feature-settings: normal; font-variation-settings: normal; font-variant-position: normal; font-stretch: normal; line-height: 21.6px; font-family: &amp;quot;.AppleSystemUIFontMonospaced&amp;quot;; margin: 0px;&quot; class=&quot;p1&quot;&gt;&lt;font style=&quot;font-size: 14px;&quot;&gt;- p1Up, p1Down, p1Left, p1Right: boolean&lt;/font&gt;&lt;/p&gt;&lt;p style=&quot;font-variant-numeric: normal; font-variant-east-asian: normal; font-variant-alternates: normal; font-size-adjust: none; font-kerning: auto; font-optical-sizing: auto; font-feature-settings: normal; font-variation-settings: normal; font-variant-position: normal; font-stretch: normal; line-height: 21.6px; font-family: &amp;quot;.AppleSystemUIFontMonospaced&amp;quot;; margin: 0px;&quot; class=&quot;p1&quot;&gt;&lt;font style=&quot;font-size: 14px;&quot;&gt;- p2Up, p2Down, p2Left, p2Right: boolean&lt;/font&gt;&lt;/p&gt;&lt;p style=&quot;font-variant-numeric: normal; font-variant-east-asian: normal; font-variant-alternates: normal; font-size-adjust: none; font-kerning: auto; font-optical-sizing: auto; font-feature-settings: normal; font-variation-settings: normal; font-variant-position: normal; font-stretch: normal; line-height: 21.6px; font-family: &amp;quot;.AppleSystemUIFontMonospaced&amp;quot;; margin: 0px;&quot; class=&quot;p1&quot;&gt;&lt;font style=&quot;font-size: 14px;&quot;&gt;- bullets: Array&lt;/font&gt;&lt;/p&gt;&lt;p style=&quot;font-variant-numeric: normal; font-variant-east-asian: normal; font-variant-alternates: normal; font-size-adjust: none; font-kerning: auto; font-optical-sizing: auto; font-feature-settings: normal; font-variation-settings: normal; font-variant-position: normal; font-stretch: normal; line-height: 21.6px; font-family: &amp;quot;.AppleSystemUIFontMonospaced&amp;quot;; margin: 0px;&quot; class=&quot;p1&quot;&gt;&lt;font style=&quot;font-size: 14px;&quot;&gt;- enemies: Array&lt;/font&gt;&lt;/p&gt;&lt;p style=&quot;font-variant-numeric: normal; font-variant-east-asian: normal; font-variant-alternates: normal; font-size-adjust: none; font-kerning: auto; font-optical-sizing: auto; font-feature-settings: normal; font-variation-settings: normal; font-variant-position: normal; font-stretch: normal; line-height: 21.6px; font-family: &amp;quot;.AppleSystemUIFontMonospaced&amp;quot;; margin: 0px;&quot; class=&quot;p1&quot;&gt;&lt;font style=&quot;font-size: 14px;&quot;&gt;- enemyBullets: Array&lt;/font&gt;&lt;/p&gt;&lt;p style=&quot;font-variant-numeric: normal; font-variant-east-asian: normal; font-variant-alternates: normal; font-size-adjust: none; font-kerning: auto; font-optical-sizing: auto; font-feature-settings: normal; font-variation-settings: normal; font-variant-position: normal; font-stretch: normal; line-height: 21.6px; font-family: &amp;quot;.AppleSystemUIFontMonospaced&amp;quot;; margin: 0px;&quot; class=&quot;p1&quot;&gt;&lt;font style=&quot;font-size: 14px;&quot;&gt;- currentRound: int&lt;/font&gt;&lt;/p&gt;&lt;p style=&quot;font-variant-numeric: normal; font-variant-east-asian: normal; font-variant-alternates: normal; font-size-adjust: none; font-kerning: auto; font-optical-sizing: auto; font-feature-settings: normal; font-variation-settings: normal; font-variant-position: normal; font-stretch: normal; line-height: 21.6px; font-family: &amp;quot;.AppleSystemUIFontMonospaced&amp;quot;; margin: 0px;&quot; class=&quot;p1&quot;&gt;&lt;font style=&quot;font-size: 14px;&quot;&gt;- maxRound: int&lt;/font&gt;&lt;/p&gt;&lt;p style=&quot;font-variant-numeric: normal; font-variant-east-asian: normal; font-variant-alternates: normal; font-size-adjust: none; font-kerning: auto; font-optical-sizing: auto; font-feature-settings: normal; font-variation-settings: normal; font-variant-position: normal; font-stretch: normal; line-height: 21.6px; font-family: &amp;quot;.AppleSystemUIFontMonospaced&amp;quot;; margin: 0px;&quot; class=&quot;p1&quot;&gt;&lt;font style=&quot;font-size: 14px;&quot;&gt;- score: int&lt;/font&gt;&lt;/p&gt;&lt;p style=&quot;font-variant-numeric: normal; font-variant-east-asian: normal; font-variant-alternates: normal; font-size-adjust: none; font-kerning: auto; font-optical-sizing: auto; font-feature-settings: normal; font-variation-settings: normal; font-variant-position: normal; font-stretch: normal; line-height: 21.6px; font-family: &amp;quot;.AppleSystemUIFontMonospaced&amp;quot;; margin: 0px;&quot; class=&quot;p1&quot;&gt;&lt;font style=&quot;font-size: 14px;&quot;&gt;- player1SpeedFactor, player2SpeedFactor: float&lt;/font&gt;&lt;/p&gt;&lt;p style=&quot;font-variant-numeric: normal; font-variant-east-asian: normal; font-variant-alternates: normal; font-size-adjust: none; font-kerning: auto; font-optical-sizing: auto; font-feature-settings: normal; font-variation-settings: normal; font-variant-position: normal; font-stretch: normal; line-height: 21.6px; font-family: &amp;quot;.AppleSystemUIFontMonospaced&amp;quot;; margin: 0px;&quot; class=&quot;p1&quot;&gt;&lt;font style=&quot;font-size: 14px;&quot;&gt;- myPlaneW, myPlaneH, myPlane2W, myPlane2H: int&lt;/font&gt;&lt;/p&gt;&lt;p style=&quot;font-variant-numeric: normal; font-variant-east-asian: normal; font-variant-alternates: normal; font-size-adjust: none; font-kerning: auto; font-optical-sizing: auto; font-feature-settings: normal; font-variation-settings: normal; font-variant-position: normal; font-stretch: normal; line-height: 21.6px; font-family: &amp;quot;.AppleSystemUIFontMonospaced&amp;quot;; margin: 0px;&quot; class=&quot;p1&quot;&gt;&lt;font style=&quot;font-size: 14px;&quot;&gt;- bulletW, bulletH: int&lt;/font&gt;&lt;/p&gt;&lt;p style=&quot;font-variant-numeric: normal; font-variant-east-asian: normal; font-variant-alternates: normal; font-size-adjust: none; font-kerning: auto; font-optical-sizing: auto; font-feature-settings: normal; font-variation-settings: normal; font-variant-position: normal; font-stretch: normal; line-height: 21.6px; font-family: &amp;quot;.AppleSystemUIFontMonospaced&amp;quot;; margin: 0px;&quot; class=&quot;p1&quot;&gt;&lt;font style=&quot;font-size: 14px;&quot;&gt;- plane1ShieldActive, plane2ShieldActive: boolean&lt;/font&gt;&lt;/p&gt;&lt;p style=&quot;font-variant-numeric: normal; font-variant-east-asian: normal; font-variant-alternates: normal; font-size-adjust: none; font-kerning: auto; font-optical-sizing: auto; font-feature-settings: normal; font-variation-settings: normal; font-variant-position: normal; font-stretch: normal; line-height: 21.6px; font-family: &amp;quot;.AppleSystemUIFontMonospaced&amp;quot;; margin: 0px;&quot; class=&quot;p1&quot;&gt;&lt;font style=&quot;font-size: 14px;&quot;&gt;- SHIELD_DURATION: int&lt;/font&gt;&lt;/p&gt;&lt;p style=&quot;font-variant-numeric: normal; font-variant-east-asian: normal; font-variant-alternates: normal; font-size-adjust: none; font-kerning: auto; font-optical-sizing: auto; font-feature-settings: normal; font-variation-settings: normal; font-variant-position: normal; font-stretch: normal; line-height: 21.6px; font-family: &amp;quot;.AppleSystemUIFontMonospaced&amp;quot;; margin: 0px;&quot; class=&quot;p1&quot;&gt;&lt;font style=&quot;font-size: 14px;&quot;&gt;- enemyObj: { enemy1, enemy2, enemy3 ... }&lt;/font&gt;&lt;/p&gt;&lt;/div&gt;" style="text;strokeColor=none;fillColor=none;align=left;verticalAlign=top;spacingLeft=4;spacingRight=4;overflow=hidden;rotatable=0;points=[[0,0.5],[1,0.5]];portConstraint=eastwest;whiteSpace=wrap;html=1;" vertex="1" parent="in3-vSJeBL32kbLkJpHw-132">
          <mxGeometry y="26" width="370" height="504" as="geometry" />
        </mxCell>
        <mxCell id="in3-vSJeBL32kbLkJpHw-134" value="" style="line;strokeWidth=1;fillColor=none;align=left;verticalAlign=middle;spacingTop=-1;spacingLeft=3;spacingRight=3;rotatable=0;labelPosition=right;points=[];portConstraint=eastwest;strokeColor=inherit;" vertex="1" parent="in3-vSJeBL32kbLkJpHw-132">
          <mxGeometry y="530" width="370" height="8" as="geometry" />
        </mxCell>
        <mxCell id="in3-vSJeBL32kbLkJpHw-135" value="&lt;div style=&quot;line-height: 180%;&quot;&gt;&lt;p style=&quot;margin: 0px; font-variant-numeric: normal; font-variant-east-asian: normal; font-variant-alternates: normal; font-size-adjust: none; font-kerning: auto; font-optical-sizing: auto; font-feature-settings: normal; font-variation-settings: normal; font-variant-position: normal; font-stretch: normal; line-height: normal; font-family: &amp;quot;.AppleSystemUIFontMonospaced&amp;quot;;&quot; class=&quot;p1&quot;&gt;&lt;font style=&quot;font-size: 14px;&quot;&gt;+ showGameEnter()&lt;/font&gt;&lt;/p&gt;&lt;/div&gt;" style="text;strokeColor=none;fillColor=none;align=left;verticalAlign=top;spacingLeft=4;spacingRight=4;overflow=hidden;rotatable=0;points=[[0,0.5],[1,0.5]];portConstraint=eastwest;whiteSpace=wrap;html=1;" vertex="1" parent="in3-vSJeBL32kbLkJpHw-132">
          <mxGeometry y="538" width="370" height="42" as="geometry" />
        </mxCell>
      </root>
    </mxGraphModel>
  </diagram>
</mxfile>
